<svg width="67" height="70" viewBox="0 0 67 70" fill="none" xmlns="http://www.w3.org/2000/svg">
<g clip-path="url(#clip0_1_1843)">
<path fill-rule="evenodd" clip-rule="evenodd" d="M33.5 69.6098C52.0015 69.6098 67 54.2455 67 35.2927C67 16.3399 52.0015 0.975616 33.5 0.975616C14.9985 0.975616 0 16.3399 0 35.2927C0 54.2455 14.9985 69.6098 33.5 69.6098Z" fill="#E2E6FF"/>
<path fill-rule="evenodd" clip-rule="evenodd" d="M33.493 0.975613C32.154 0.975613 31.0685 2.08897 31.0685 3.46236C31.0685 4.83575 32.154 5.9491 33.493 5.9491C49.2297 5.9491 62.0098 18.9846 62.1024 35.1159C62.1103 36.4893 63.2022 37.5961 64.5412 37.588C65.8803 37.5799 66.9594 36.46 66.9515 35.0867C66.8432 16.2204 51.897 0.975613 33.493 0.975613Z" fill="url(#paint0_linear_1_1843)"/>
<g filter="url(#filter0_d_1_1843)">
<circle cx="34" cy="33.9756" r="17" fill="#FAFBFF"/>
</g>
<path fill-rule="evenodd" clip-rule="evenodd" d="M45.5457 26.9936C45.5782 26.8431 45.4357 26.7139 45.2891 26.7609L41.8258 27.8726C41.6792 27.9197 41.6385 28.1078 41.7526 28.2112L44.447 30.6546C44.561 30.758 44.7443 30.6992 44.7768 30.5487L45.5457 26.9936ZM30.4631 41.1417C31.2756 40.7596 31.5667 39.8948 31.7058 39.1856C31.8266 38.5698 31.8728 37.8367 31.9168 37.1399C31.9259 36.9953 31.9349 36.8523 31.9445 36.7123C32.003 35.8552 32.0825 35.0724 32.2832 34.4394C32.4806 33.8167 32.7604 33.4475 33.15 33.2643C33.5559 33.0734 34.0023 33.0898 34.5621 33.3022C35.1412 33.5219 35.7486 33.9163 36.4213 34.3737L36.6022 34.4971C37.1927 34.9003 37.8398 35.3421 38.4706 35.6268C39.1746 35.9445 40.0209 36.1427 40.859 35.7486C41.9976 35.2132 42.4047 34.2454 42.675 33.5439C42.6976 33.4851 42.719 33.4292 42.7394 33.3758C42.85 33.0859 42.9324 32.8699 43.0402 32.6807C43.154 32.4812 43.2626 32.3768 43.3961 32.314C43.7709 32.1378 43.9319 31.691 43.7556 31.3162C43.5794 30.9413 43.1326 30.7804 42.7578 30.9566C42.2614 31.19 41.9509 31.5629 41.7372 31.9377C41.5665 32.237 41.4366 32.5797 41.3286 32.8647L41.3279 32.8665C41.3098 32.9143 41.2923 32.9605 41.2753 33.0045C41.0182 33.6718 40.7866 34.1251 40.2208 34.3912C39.9649 34.5115 39.6267 34.5029 39.0877 34.2596C38.5841 34.0323 38.0479 33.667 37.4277 33.2443L37.4277 33.2443L37.2649 33.1334C36.6098 32.6879 35.8632 32.1916 35.0943 31.8998C34.3059 31.6006 33.4101 31.4844 32.5118 31.9068C31.5972 32.3369 31.118 33.1513 30.8533 33.986C30.592 34.8104 30.5061 35.7588 30.448 36.6101C30.4369 36.7717 30.4269 36.9293 30.4171 37.0827V37.0827C30.3728 37.7774 30.3339 38.3869 30.2338 38.8968C30.105 39.5538 29.9282 39.7356 29.8248 39.7843C29.4602 39.9557 29.201 39.9943 28.9977 39.9907C28.7784 39.9868 28.5801 39.9351 28.2887 39.8529L28.2579 39.8441L28.2579 39.8441C27.9878 39.7677 27.6281 39.666 27.2114 39.6556C26.7603 39.6444 26.2798 39.7383 25.7355 39.9942C24.5548 40.5494 23.9476 41.7513 23.6356 42.648C23.4727 43.1161 23.3729 43.5514 23.3136 43.8687C23.2838 44.0281 23.2638 44.1598 23.2511 44.2534C23.2448 44.3003 23.2402 44.3378 23.2371 44.3647L23.2336 44.3969L23.2326 44.4067L23.2323 44.4101L23.2321 44.4113L23.2321 44.4118C23.2321 44.4121 23.2321 44.4123 23.9409 44.4797L23.2321 44.4123C23.1928 44.8246 23.4953 45.1907 23.9077 45.2299C24.3199 45.2691 24.6859 44.9668 24.7253 44.5546L24.7253 44.5543L24.7255 44.5526L24.7275 44.5348C24.7294 44.5178 24.7327 44.4907 24.7375 44.4549C24.7473 44.383 24.7634 44.2763 24.788 44.1444C24.8376 43.879 24.9205 43.5198 25.0523 43.1409C25.3298 42.3432 25.7607 41.6399 26.3738 41.3516C26.7263 41.1859 26.9766 41.1503 27.1741 41.1552C27.39 41.1606 27.5855 41.213 27.8813 41.2965L27.8983 41.3013C28.1206 41.364 28.402 41.4435 28.7279 41.476C28.8064 41.4839 28.8876 41.489 28.9711 41.4905C29.426 41.4985 29.9117 41.401 30.4631 41.1417Z" fill="url(#paint1_linear_1_1843)"/>
</g>
<defs>
<filter id="filter0_d_1_1843" x="1" y="8.97562" width="66" height="66" filterUnits="userSpaceOnUse" color-interpolation-filters="sRGB">
<feFlood flood-opacity="0" result="BackgroundImageFix"/>
<feColorMatrix in="SourceAlpha" type="matrix" values="0 0 0 0 0 0 0 0 0 0 0 0 0 0 0 0 0 0 127 0" result="hardAlpha"/>
<feOffset dy="8"/>
<feGaussianBlur stdDeviation="8"/>
<feComposite in2="hardAlpha" operator="out"/>
<feColorMatrix type="matrix" values="0 0 0 0 0.431373 0 0 0 0 0.505882 0 0 0 0 0.996078 0 0 0 0.4 0"/>
<feBlend mode="normal" in2="BackgroundImageFix" result="effect1_dropShadow_1_1843"/>
<feBlend mode="normal" in="SourceGraphic" in2="effect1_dropShadow_1_1843" result="shape"/>
</filter>
<linearGradient id="paint0_linear_1_1843" x1="49.01" y1="-21.358" x2="4.38878" y2="64.5088" gradientUnits="userSpaceOnUse">
<stop stop-color="#6E81FE"/>
<stop offset="1" stop-color="#FFB7F5"/>
</linearGradient>
<linearGradient id="paint1_linear_1_1843" x1="34.3895" y1="56.5075" x2="14.6794" y2="9.76775" gradientUnits="userSpaceOnUse">
<stop stop-color="#687EFE"/>
<stop offset="1" stop-color="#FFB7F5"/>
</linearGradient>
<clipPath id="clip0_1_1843">
<rect width="67" height="68.6341" fill="white" transform="translate(0 0.975616)"/>
</clipPath>
</defs>
</svg>
