<svg width="67" height="69" viewBox="0 0 67 69" fill="none" xmlns="http://www.w3.org/2000/svg">
<g clip-path="url(#clip0_1_1855)">
<path fill-rule="evenodd" clip-rule="evenodd" d="M33.5 68.6341C52.0015 68.6341 67 53.2699 67 34.3171C67 15.3643 52.0015 0 33.5 0C14.9985 0 0 15.3643 0 34.3171C0 53.2699 14.9985 68.6341 33.5 68.6341Z" fill="#9EC600" fill-opacity="0.1"/>
<path fill-rule="evenodd" clip-rule="evenodd" d="M33.4931 7.62939e-06C32.1541 7.62939e-06 31.0685 1.11336 31.0685 2.48675C31.0685 3.86014 32.1541 4.9735 33.4931 4.9735C49.2939 4.9735 62.103 18.1111 62.103 34.3171C62.103 50.5231 49.2939 63.6607 33.4931 63.6607C25.95 63.6607 18.8746 60.6568 13.5696 55.3761C12.6087 54.4196 11.0737 54.4431 10.1411 55.4286C9.20853 56.4142 9.23148 57.9885 10.1924 58.945C16.3934 65.1177 24.6762 68.6342 33.4931 68.6342C51.972 68.6342 66.9521 53.2699 66.9521 34.3171C66.9521 15.3643 51.972 7.62939e-06 33.4931 7.62939e-06Z" fill="url(#paint0_linear_1_1855)"/>
<g filter="url(#filter0_d_1_1855)">
<ellipse cx="34" cy="33.8049" rx="17" ry="17.4146" fill="#FAFBFF"/>
</g>
<path fill-rule="evenodd" clip-rule="evenodd" d="M45.5464 26.649C45.5786 26.4966 45.4374 26.3655 45.2925 26.4131L41.8212 27.5545C41.6766 27.6021 41.6367 27.7922 41.7495 27.897L42.6518 28.7353C42.2181 28.9764 41.9382 29.3299 41.7414 29.6836C41.5709 29.9898 41.4412 30.3404 41.3332 30.6322C41.3148 30.6819 41.2971 30.7299 41.2799 30.7756C41.0219 31.4613 40.7902 31.9242 40.227 32.1954C39.9742 32.3172 39.6367 32.31 39.0946 32.0594C38.5898 31.826 38.0525 31.4509 37.4326 31.0182L37.2695 30.9044C36.6145 30.448 35.8693 29.9405 35.1018 29.6422C34.3158 29.3367 33.4192 29.2164 32.518 29.6505C31.6005 30.0925 31.1219 30.9283 30.8581 31.7805C30.5972 32.6234 30.5115 33.5932 30.4533 34.4651C30.4423 34.6302 30.4323 34.7914 30.4225 34.9484L30.4225 34.9487C30.3781 35.6604 30.3392 36.2862 30.2389 36.8097C30.1093 37.4866 29.9313 37.6718 29.831 37.7201C29.4677 37.8951 29.2094 37.9345 29.0065 37.9308C28.7871 37.9269 28.5885 37.8738 28.2969 37.7895L28.266 37.7806C27.9961 37.7024 27.6368 37.5982 27.2203 37.5876C26.7687 37.5761 26.2873 37.6724 25.7417 37.9352C24.5582 38.5053 23.9514 39.7379 23.6403 40.654C23.4776 41.1329 23.3779 41.5782 23.3187 41.9027C23.2889 42.0657 23.269 42.2003 23.2563 42.296C23.25 42.3439 23.2454 42.3822 23.2424 42.4096L23.2389 42.4425L23.2379 42.4525L23.2376 42.4558L23.2374 42.4571L23.2374 42.4576C23.2374 42.4578 23.2373 42.4581 23.9787 42.52L23.2373 42.4581C23.1988 42.8738 23.4994 43.2386 23.9088 43.2728C24.318 43.307 24.681 42.9981 24.72 42.5827L24.72 42.5824L28.7237 39.427C28.8008 39.4347 28.8804 39.4398 28.9623 39.4413C29.4176 39.4496 29.9042 39.3495 30.4568 39.0833C31.2725 38.6904 31.5623 37.8034 31.7007 37.0808C31.8213 36.4512 31.8674 35.7015 31.9114 34.9877V34.9877C31.9205 34.8396 31.9296 34.693 31.9392 34.5493C31.9977 33.6711 32.0772 32.8675 32.2784 32.2175C32.4768 31.5767 32.7571 31.2 33.1438 31.0138C33.5468 30.8196 33.9924 30.8351 34.5546 31.0537C35.1352 31.2794 35.7439 31.6843 36.4166 32.1529L36.5974 32.2792C37.1881 32.6923 37.8341 33.1442 38.4637 33.4353C39.1646 33.7593 40.0116 33.9638 40.8528 33.5587C41.9941 33.0089 42.4009 32.0161 42.6705 31.2995C42.6931 31.2394 42.7144 31.1822 42.7348 31.1274C42.8454 30.8305 42.928 30.6086 43.0361 30.4145C43.1502 30.2094 43.2584 30.1037 43.3898 30.0404C43.5345 29.9707 43.6475 29.8602 43.7216 29.7291L44.4501 30.4058C44.5628 30.5105 44.7437 30.4513 44.7758 30.2992L45.5464 26.649ZM28.431 39.3839C28.5239 39.4017 28.6216 39.4167 28.7237 39.427L31.7007 37.0808L28.431 39.3839ZM28.431 39.3839C28.2257 39.3447 28.0438 39.2921 27.8902 39.2477L27.8731 39.2427C27.5771 39.1571 27.3812 39.1033 27.1652 39.0978C26.9681 39.0928 26.7189 39.1291 26.3675 39.2984C25.7572 39.5924 25.326 40.3113 25.0477 41.1309C24.9514 41.4144 24.8812 41.6872 24.8309 41.9197L23.9787 42.52C24.72 42.582 24.72 42.5822 24.72 42.5824L24.72 42.582L24.7202 42.5801L24.7222 42.5618C24.7241 42.5442 24.7274 42.5164 24.7323 42.4795C24.7421 42.4056 24.7582 42.2961 24.7829 42.1607C24.7964 42.0869 24.8123 42.0061 24.8309 41.9197L28.431 39.3839Z" fill="url(#paint1_linear_1_1855)"/>
</g>
<defs>
<filter id="filter0_d_1_1855" x="1" y="8.39026" width="66" height="66.8293" filterUnits="userSpaceOnUse" color-interpolation-filters="sRGB">
<feFlood flood-opacity="0" result="BackgroundImageFix"/>
<feColorMatrix in="SourceAlpha" type="matrix" values="0 0 0 0 0 0 0 0 0 0 0 0 0 0 0 0 0 0 127 0" result="hardAlpha"/>
<feOffset dy="8"/>
<feGaussianBlur stdDeviation="8"/>
<feComposite in2="hardAlpha" operator="out"/>
<feColorMatrix type="matrix" values="0 0 0 0 0.619608 0 0 0 0 0.776471 0 0 0 0 0 0 0 0 0.4 0"/>
<feBlend mode="normal" in2="BackgroundImageFix" result="effect1_dropShadow_1_1855"/>
<feBlend mode="normal" in="SourceGraphic" in2="effect1_dropShadow_1_1855" result="shape"/>
</filter>
<linearGradient id="paint0_linear_1_1855" x1="91.684" y1="75.4719" x2="-4.25749" y2="95.4414" gradientUnits="userSpaceOnUse">
<stop stop-color="#9EC600"/>
<stop offset="1" stop-color="#CDF4FF"/>
</linearGradient>
<linearGradient id="paint1_linear_1_1855" x1="55.1508" y1="24.7222" x2="20.085" y2="13.198" gradientUnits="userSpaceOnUse">
<stop stop-color="#A1C734"/>
<stop offset="1" stop-color="#CDF4FF"/>
</linearGradient>
<clipPath id="clip0_1_1855">
<rect width="67" height="68.6341" fill="white"/>
</clipPath>
</defs>
</svg>
