<?xml version="1.0" standalone="no"?>
<!DOCTYPE svg PUBLIC "-//W3C//DTD SVG 20010904//EN"
 "http://www.w3.org/TR/2001/REC-SVG-20010904/DTD/svg10.dtd">
<svg version="1.0" xmlns="http://www.w3.org/2000/svg"
 width="193.000000pt" height="189.000000pt" viewBox="0 0 193.000000 189.000000"
 preserveAspectRatio="xMidYMid meet">

<g transform="translate(0.000000,189.000000) scale(0.100000,-0.100000)"
fill="#000000" stroke="none">
<path d="M455 1862 c-209 -83 -367 -257 -429 -476 l-26 -88 0 -649 0 -649 700
0 699 0 65 24 c217 78 389 268 447 494 18 71 19 115 19 724 l0 648 -702 0
-703 -1 -70 -27z m727 -334 c107 -49 194 -160 212 -269 6 -35 4 -38 -43 -68
-27 -18 -57 -43 -65 -56 -15 -23 -12 -22 29 7 40 28 56 33 119 36 159 8 266
-88 266 -238 0 -73 -22 -121 -78 -172 -49 -44 -100 -62 -174 -62 l-58 1 -2
-166 -3 -166 -53 -17 c-117 -39 -558 -41 -689 -3 l-53 16 0 169 0 170 -55 0
c-111 0 -215 62 -270 161 -27 49 -30 62 -30 149 0 86 3 99 28 143 103 175 348
208 500 68 25 -23 50 -55 57 -72 19 -45 22 -29 5 28 -16 54 -58 113 -105 148
l-30 22 31 46 c30 46 81 92 129 117 91 48 236 52 332 8z"/>
<path d="M1025 1510 c111 -16 169 -45 254 -124 25 -24 39 -32 33 -20 -18 35
-100 104 -150 125 -29 13 -76 22 -122 24 l-75 4 60 -9z"/>
<path d="M1545 1113 c17 -8 43 -27 60 -42 l30 -26 -25 28 c-24 28 -70 57 -87
57 -4 -1 6 -8 22 -17z"/>
<path d="M812 779 c-110 -13 -156 -29 -57 -21 99 9 401 8 475 -1 36 -4 48 -3
33 3 -61 25 -305 36 -451 19z"/>
<path d="M887 493 c51 -2 135 -2 185 0 51 1 10 3 -92 3 -102 0 -143 -2 -93 -3z"/>
<path d="M733 483 c9 -2 23 -2 30 0 6 3 -1 5 -18 5 -16 0 -22 -2 -12 -5z"/>
<path d="M1218 483 c7 -3 16 -2 19 1 4 3 -2 6 -13 5 -11 0 -14 -3 -6 -6z"/>
<path d="M758 449 c-84 -10 -128 -23 -128 -38 0 -20 103 -33 302 -38 213 -5
360 6 394 32 16 11 14 13 -19 24 -86 29 -379 39 -549 20z"/>
</g>
</svg>
